<svg xmlns="http://www.w3.org/2000/svg">
    <symbol id="html5" viewBox="0 0 24 24"><path d="M1.5 0h21l-1.91 21.563L11.977 24l-8.564-2.438L1.5 0zm7.031 9.75l-.232-2.718 10.059.003.23-2.622L5.412 4.41l.698 8.01h9.126l-.326 3.426-2.91.804-2.955-.81-.188-2.11H6.248l.33 4.171L12 19.351l5.379-1.443.744-8.157H8.531z"/></symbol>        
    <symbol id="css3" role="img" viewBox="0 0 24 24"><path d="M1.5 0h21l-1.91 21.563L11.977 24l-8.565-2.438L1.5 0zm17.09 4.413L5.41 4.41l.213 2.622 10.125.002-.255 2.716h-6.64l.24 2.573h6.182l-.366 3.523-2.91.804-2.956-.81-.188-2.11h-2.61l.29 3.855L12 19.288l5.373-1.53L18.59 4.414z"/></symbol>        
    <symbol id="javascript" role="img" viewBox="0 0 24 24"><path d="M0 0h24v24H0V0zm22.034 18.276c-.175-1.095-.888-2.015-3.003-2.873-.736-.345-1.554-.585-1.797-1.14-.091-.33-.105-.51-.046-.705.15-.646.915-.84 1.515-.66.39.12.75.42.976.9 1.034-.676 1.034-.676 1.755-1.125-.27-.42-.404-.601-.586-.78-.63-.705-1.469-1.065-2.834-1.034l-.705.089c-.676.165-1.32.525-1.71 1.005-1.14 1.291-.811 3.541.569 4.471 1.365 1.02 3.361 1.244 3.616 2.205.24 1.17-.87 1.545-1.966 1.41-.811-.18-1.26-.586-1.755-1.336l-1.83 1.051c.21.48.45.689.81 1.109 1.74 1.756 6.09 1.666 6.871-1.004.029-.09.24-.705.074-1.65l.046.067zm-8.983-7.245h-2.248c0 1.938-.009 3.864-.009 5.805 0 1.232.063 2.363-.138 2.711-.33.689-1.18.601-1.566.48-.396-.196-.597-.466-.83-.855-.063-.105-.11-.196-.127-.196l-1.825 1.125c.305.63.75 1.172 1.324 1.517.855.51 2.004.675 3.207.405.783-.226 1.458-.691 1.811-1.411.51-.93.402-2.07.397-3.346.012-2.054 0-4.109 0-6.179l.004-.056z"/></symbol>
    <symbol id="typescript" role="img" viewBox="0 0 24 24"><path d="M1.125 0C.502 0 0 .502 0 1.125v21.75C0 23.498.502 24 1.125 24h21.75c.623 0 1.125-.502 1.125-1.125V1.125C24 .502 23.498 0 22.875 0zm17.363 9.75c.612 0 1.154.037 1.627.111a6.38 6.38 0 0 1 1.306.34v2.458a3.95 3.95 0 0 0-.643-.361 5.093 5.093 0 0 0-.717-.26 5.453 5.453 0 0 0-1.426-.2c-.3 0-.573.028-.819.086a2.1 2.1 0 0 0-.623.242c-.17.104-.3.229-.393.374a.888.888 0 0 0-.14.49c0 .196.053.373.156.529.104.156.252.304.443.444s.423.276.696.41c.273.135.582.274.926.416.47.197.892.407 1.266.628.374.222.695.473.963.753.268.279.472.598.614.957.142.359.214.776.214 1.253 0 .657-.125 1.21-.373 1.656a3.033 3.033 0 0 1-1.012 1.085 4.38 4.38 0 0 1-1.487.596c-.566.12-1.163.18-1.79.18a9.916 9.916 0 0 1-1.84-.164 5.544 5.544 0 0 1-1.512-.493v-2.63a5.033 5.033 0 0 0 3.237 1.2c.333 0 .624-.03.872-.09.249-.06.456-.144.623-.25.166-.108.29-.234.373-.38a1.023 1.023 0 0 0-.074-1.089 2.12 2.12 0 0 0-.537-.5 5.597 5.597 0 0 0-.807-.444 27.72 27.72 0 0 0-1.007-.436c-.918-.383-1.602-.852-2.053-1.405-.45-.553-.676-1.222-.676-2.005 0-.614.123-1.141.369-1.582.246-.441.58-.804 1.004-1.089a4.494 4.494 0 0 1 1.47-.629 7.536 7.536 0 0 1 1.77-.201zm-15.113.188h9.563v2.166H9.506v9.646H6.789v-9.646H3.375z"/></symbol>
    <symbol id="python" role="img" viewBox="0 0 24 24"><path d="M14.25.18l.9.2.73.26.59.3.45.32.34.34.25.34.16.33.1.3.04.26.02.2-.01.13V8.5l-.05.63-.13.55-.21.46-.26.38-.3.31-.33.25-.35.19-.35.14-.33.1-.3.07-.26.04-.21.02H8.77l-.69.05-.59.14-.5.22-.41.27-.33.32-.27.35-.2.36-.15.37-.1.35-.07.32-.04.27-.02.21v3.06H3.17l-.21-.03-.28-.07-.32-.12-.35-.18-.36-.26-.36-.36-.35-.46-.32-.59-.28-.73-.21-.88-.14-1.05-.05-1.23.06-1.22.16-1.04.24-.87.32-.71.36-.57.4-.44.42-.33.42-.24.4-.16.36-.1.32-.05.24-.01h.16l.06.01h8.16v-.83H6.18l-.01-2.75-.02-.37.05-.34.11-.31.17-.28.25-.26.31-.23.38-.2.44-.18.51-.15.58-.12.64-.1.71-.06.77-.04.84-.02 1.27.05zm-6.3 1.98l-.23.33-.08.41.08.41.23.34.33.22.41.09.41-.09.33-.22.23-.34.08-.41-.08-.41-.23-.33-.33-.22-.41-.09-.41.09zm13.09 3.95l.28.06.32.12.35.18.36.27.36.35.35.47.32.59.28.73.21.88.14 1.04.05 1.23-.06 1.23-.16 1.04-.24.86-.32.71-.36.57-.4.45-.42.33-.42.24-.4.16-.36.09-.32.05-.24.02-.16-.01h-8.22v.82h5.84l.01 2.76.02.36-.05.34-.11.31-.17.29-.25.25-.31.24-.38.2-.44.17-.51.15-.58.13-.64.09-.71.07-.77.04-.84.01-1.27-.04-1.07-.14-.9-.2-.73-.25-.59-.3-.45-.33-.34-.34-.25-.34-.16-.33-.1-.3-.04-.25-.02-.2.01-.13v-5.34l.05-.64.13-.54.21-.46.26-.38.3-.32.33-.24.35-.2.35-.14.33-.1.3-.06.26-.04.21-.02.13-.01h5.84l.69-.05.59-.14.5-.21.41-.28.33-.32.27-.35.2-.36.15-.36.1-.35.07-.32.04-.28.02-.21V6.07h2.09l.14.01zm-6.47 14.25l-.23.33-.08.41.08.41.23.33.33.23.41.08.41-.08.33-.23.23-.33.08-.41-.08-.41-.23-.33-.33-.23-.41-.08-.41.08z"/></symbol>        
    <symbol id="php" role="img" viewBox="0 0 24 24"><path d="M7.01 10.207h-.944l-.515 2.648h.838c.556 0 .97-.105 1.242-.314.272-.21.455-.559.55-1.049.092-.47.05-.802-.124-.995-.175-.193-.523-.29-1.047-.29zM12 5.688C5.373 5.688 0 8.514 0 12s5.373 6.313 12 6.313S24 15.486 24 12c0-3.486-5.373-6.312-12-6.312zm-3.26 7.451c-.261.25-.575.438-.917.551-.336.108-.765.164-1.285.164H5.357l-.327 1.681H3.652l1.23-6.326h2.65c.797 0 1.378.209 1.744.628.366.418.476 1.002.33 1.752a2.836 2.836 0 0 1-.305.847c-.143.255-.33.49-.561.703zm4.024.715l.543-2.799c.063-.318.039-.536-.068-.651-.107-.116-.336-.174-.687-.174H11.46l-.704 3.625H9.388l1.23-6.327h1.367l-.327 1.682h1.218c.767 0 1.295.134 1.586.401s.378.7.263 1.299l-.572 2.944h-1.389zm7.597-2.265a2.782 2.782 0 0 1-.305.847c-.143.255-.33.49-.561.703a2.44 2.44 0 0 1-.917.551c-.336.108-.765.164-1.286.164h-1.18l-.327 1.682h-1.378l1.23-6.326h2.649c.797 0 1.378.209 1.744.628.366.417.477 1.001.331 1.751zM17.766 10.207h-.943l-.516 2.648h.838c.557 0 .971-.105 1.242-.314.272-.21.455-.559.551-1.049.092-.47.049-.802-.125-.995s-.524-.29-1.047-.29z"/></symbol>        
    <symbol id="cplusplus" role="img" viewBox="0 0 24 24"><path d="M22.394 6c-.167-.29-.398-.543-.652-.69L12.926.22c-.509-.294-1.34-.294-1.848 0L2.26 5.31c-.508.293-.923 1.013-.923 1.6v10.18c0 .294.104.62.271.91.167.29.398.543.652.69l8.816 5.09c.508.293 1.34.293 1.848 0l8.816-5.09c.254-.147.485-.4.652-.69.167-.29.27-.616.27-.91V6.91c.003-.294-.1-.62-.268-.91zM12 19.11c-3.92 0-7.109-3.19-7.109-7.11 0-3.92 3.19-7.11 7.11-7.11a7.133 7.133 0 016.156 3.553l-3.076 1.78a3.567 3.567 0 00-3.08-1.78A3.56 3.56 0 008.444 12 3.56 3.56 0 0012 15.555a3.57 3.57 0 003.08-1.778l3.078 1.78A7.135 7.135 0 0112 19.11zm7.11-6.715h-.79v.79h-.79v-.79h-.79v-.79h.79v-.79h.79v.79h.79zm2.962 0h-.79v.79h-.79v-.79h-.79v-.79h.79v-.79h.79v.79h.79z"/></symbol>        
    <symbol id="react" role="img" viewBox="0 0 24 24"><path d="M14.23 12.004a2.236 2.236 0 0 1-2.235 2.236 2.236 2.236 0 0 1-2.236-2.236 2.236 2.236 0 0 1 2.235-2.236 2.236 2.236 0 0 1 2.236 2.236zm2.648-10.69c-1.346 0-3.107.96-4.888 2.622-1.78-1.653-3.542-2.602-4.887-2.602-.41 0-.783.093-1.106.278-1.375.793-1.683 3.264-.973 6.365C1.98 8.917 0 10.42 0 12.004c0 1.59 1.99 3.097 5.043 4.03-.704 3.113-.39 5.588.988 6.38.32.187.69.275 1.102.275 1.345 0 3.107-.96 4.888-2.624 1.78 1.654 3.542 2.603 4.887 2.603.41 0 .783-.09 1.106-.275 1.374-.792 1.683-3.263.973-6.365C22.02 15.096 24 13.59 24 12.004c0-1.59-1.99-3.097-5.043-4.032.704-3.11.39-5.587-.988-6.38-.318-.184-.688-.277-1.092-.278zm-.005 1.09v.006c.225 0 .406.044.558.127.666.382.955 1.835.73 3.704-.054.46-.142.945-.25 1.44-.96-.236-2.006-.417-3.107-.534-.66-.905-1.345-1.727-2.035-2.447 1.592-1.48 3.087-2.292 4.105-2.295zm-9.77.02c1.012 0 2.514.808 4.11 2.28-.686.72-1.37 1.537-2.02 2.442-1.107.117-2.154.298-3.113.538-.112-.49-.195-.964-.254-1.42-.23-1.868.054-3.32.714-3.707.19-.09.4-.127.563-.132zm4.882 3.05c.455.468.91.992 1.36 1.564-.44-.02-.89-.034-1.345-.034-.46 0-.915.01-1.36.034.44-.572.895-1.096 1.345-1.565zM12 8.1c.74 0 1.477.034 2.202.093.406.582.802 1.203 1.183 1.86.372.64.71 1.29 1.018 1.946-.308.655-.646 1.31-1.013 1.95-.38.66-.773 1.288-1.18 1.87-.728.063-1.466.098-2.21.098-.74 0-1.477-.035-2.202-.093-.406-.582-.802-1.204-1.183-1.86-.372-.64-.71-1.29-1.018-1.946.303-.657.646-1.313 1.013-1.954.38-.66.773-1.286 1.18-1.868.728-.064 1.466-.098 2.21-.098zm-3.635.254c-.24.377-.48.763-.704 1.16-.225.39-.435.782-.635 1.174-.265-.656-.49-1.31-.676-1.947.64-.15 1.315-.283 2.015-.386zm7.26 0c.695.103 1.365.23 2.006.387-.18.632-.405 1.282-.66 1.933-.2-.39-.41-.783-.64-1.174-.225-.392-.465-.774-.705-1.146zm3.063.675c.484.15.944.317 1.375.498 1.732.74 2.852 1.708 2.852 2.476-.005.768-1.125 1.74-2.857 2.475-.42.18-.88.342-1.355.493-.28-.958-.646-1.956-1.1-2.98.45-1.017.81-2.01 1.085-2.964zm-13.395.004c.278.96.645 1.957 1.1 2.98-.45 1.017-.812 2.01-1.086 2.964-.484-.15-.944-.318-1.37-.5-1.732-.737-2.852-1.706-2.852-2.474 0-.768 1.12-1.742 2.852-2.476.42-.18.88-.342 1.356-.494zm11.678 4.28c.265.657.49 1.312.676 1.948-.64.157-1.316.29-2.016.39.24-.375.48-.762.705-1.158.225-.39.435-.788.636-1.18zm-9.945.02c.2.392.41.783.64 1.175.23.39.465.772.705 1.143-.695-.102-1.365-.23-2.006-.386.18-.63.406-1.282.66-1.933zM17.92 16.32c.112.493.2.968.254 1.423.23 1.868-.054 3.32-.714 3.708-.147.09-.338.128-.563.128-1.012 0-2.514-.807-4.11-2.28.686-.72 1.37-1.536 2.02-2.44 1.107-.118 2.154-.3 3.113-.54zm-11.83.01c.96.234 2.006.415 3.107.532.66.905 1.345 1.727 2.035 2.446-1.595 1.483-3.092 2.295-4.11 2.295-.22-.005-.406-.05-.553-.132-.666-.38-.955-1.834-.73-3.703.054-.46.142-.944.25-1.438zm4.56.64c.44.02.89.034 1.345.034.46 0 .915-.01 1.36-.034-.44.572-.895 1.095-1.345 1.565-.455-.47-.91-.993-1.36-1.565z"/></symbol>        
    <symbol id="astro" role="img" viewBox="0 0 24 24"><path d="M16.074 16.86c-.72.616-2.157 1.035-3.812 1.035-2.032 0-3.735-.632-4.187-1.483-.161.488-.198 1.046-.198 1.402 0 0-.106 1.75 1.111 2.968 0-.632.513-1.145 1.145-1.145 1.083 0 1.082.945 1.081 1.712v.069c0 1.164.711 2.161 1.723 2.582a2.347 2.347 0 0 1-.236-1.029c0-1.11.652-1.523 1.41-2.003.602-.383 1.272-.807 1.733-1.66a3.129 3.129 0 0 0 .378-1.494 3.14 3.14 0 0 0-.148-.954zM15.551.6c.196.244.296.572.496 1.229l4.368 14.347a18.18 18.18 0 0 0-5.222-1.768L12.35 4.8a.37.37 0 0 0-.71.002l-2.81 9.603a18.175 18.175 0 0 0-5.245 1.771L7.974 1.827c.2-.656.3-.984.497-1.227a1.613 1.613 0 0 1 .654-.484C9.415 0 9.757 0 10.443 0h3.135c.686 0 1.03 0 1.32.117A1.614 1.614 0 0 1 15.55.6z"/></symbol>        
    <symbol id="angular" role="img" viewBox="0 0 24 24"><path d="M9.931 12.645h4.138l-2.07-4.908m0-7.737L.68 3.982l1.726 14.771L12 24l9.596-5.242L23.32 3.984 11.999.001zm7.064 18.31h-2.638l-1.422-3.503H8.996l-1.422 3.504h-2.64L12 2.65z"/></symbol>        
    <symbol id="vuedotjs" role="img" viewBox="0 0 24 24"><path d="M24,1.61H14.06L12,5.16,9.94,1.61H0L12,22.39ZM12,14.08,5.16,2.23H9.59L12,6.41l2.41-4.18h4.43Z"/></symbol>        
    <symbol id="tailwindcss" role="img" viewBox="0 0 24 24"><path d="M12.001,4.8c-3.2,0-5.2,1.6-6,4.8c1.2-1.6,2.6-2.2,4.2-1.8c0.913,0.228,1.565,0.89,2.288,1.624 C13.666,10.618,15.027,12,18.001,12c3.2,0,5.2-1.6,6-4.8c-1.2,1.6-2.6,2.2-4.2,1.8c-0.913-0.228-1.565-0.89-2.288-1.624 C16.337,6.182,14.976,4.8,12.001,4.8z M6.001,12c-3.2,0-5.2,1.6-6,4.8c1.2-1.6,2.6-2.2,4.2-1.8c0.913,0.228,1.565,0.89,2.288,1.624 c1.177,1.194,2.538,2.576,5.512,2.576c3.2,0,5.2-1.6,6-4.8c-1.2,1.6-2.6,2.2-4.2,1.8c-0.913-0.228-1.565-0.89-2.288-1.624 C10.337,13.382,8.976,12,6.001,12z"/></symbol>        
    <symbol id="devpost" role="img" viewBox="0 0 24 24"><path d="M6.002 1.61L0 12.004 6.002 22.39h11.996L24 12.004 17.998 1.61zm1.593 4.084h3.947c3.605 0 6.276 1.695 6.276 6.31 0 4.436-3.21 6.302-6.456 6.302H7.595zm2.517 2.449v7.714h1.241c2.646 0 3.862-1.55 3.862-3.861.009-2.569-1.096-3.853-3.767-3.853Z"/></symbol>        
    <symbol id="android" role="img" viewBox="0 0 24 24"><path d="M17.523 15.3414c-.5511 0-.9993-.4486-.9993-.9997s.4483-.9993.9993-.9993c.5511 0 .9993.4483.9993.9993.0001.5511-.4482.9997-.9993.9997m-11.046 0c-.5511 0-.9993-.4486-.9993-.9997s.4482-.9993.9993-.9993c.5511 0 .9993.4483.9993.9993 0 .5511-.4483.9997-.9993.9997m11.4045-6.02l1.9973-3.4592a.416.416 0 00-.1521-.5676.416.416 0 00-.5676.1521l-2.0223 3.503C15.5902 8.2439 13.8533 7.8508 12 7.8508s-3.5902.3931-5.1367 1.0989L4.841 5.4467a.4161.4161 0 00-.5677-.1521.4157.4157 0 00-.1521.5676l1.9973 3.4592C2.6889 11.1867.3432 14.6589 0 18.761h24c-.3435-4.1021-2.6892-7.5743-6.1185-9.4396"/></symbol>        
    <symbol id="git" role="img" viewBox="0 0 24 24"><path d="M23.546 10.93L13.067.452c-.604-.603-1.582-.603-2.188 0L8.708 2.627l2.76 2.76c.645-.215 1.379-.07 1.889.441.516.515.658 1.258.438 1.9l2.658 2.66c.645-.223 1.387-.078 1.9.435.721.72.721 1.884 0 2.604-.719.719-1.881.719-2.6 0-.539-.541-.674-1.337-.404-1.996L12.86 8.955v6.525c.176.086.342.203.488.348.713.721.713 1.883 0 2.6-.719.721-1.889.721-2.609 0-.719-.719-.719-1.879 0-2.598.182-.18.387-.316.605-.406V8.835c-.217-.091-.424-.222-.6-.401-.545-.545-.676-1.342-.396-2.009L7.636 3.7.45 10.881c-.6.605-.6 1.584 0 2.189l10.48 10.477c.604.604 1.582.604 2.186 0l10.43-10.43c.605-.603.605-1.582 0-2.187"/></symbol>        
    <symbol id="github" role="img" viewBox="0 0 24 24"><path d="M12 .297c-6.63 0-12 5.373-12 12 0 5.303 3.438 9.8 8.205 11.385.6.113.82-.258.82-.577 0-.285-.01-1.04-.015-2.04-3.338.724-4.042-1.61-4.042-1.61C4.422 18.07 3.633 17.7 3.633 17.7c-1.087-.744.084-.729.084-.729 1.205.084 1.838 1.236 1.838 1.236 1.07 1.835 2.809 1.305 3.495.998.108-.776.417-1.305.76-1.605-2.665-.3-5.466-1.332-5.466-5.93 0-1.31.465-2.38 1.235-3.22-.135-.303-.54-1.523.105-3.176 0 0 1.005-.322 3.3 1.23.96-.267 1.98-.399 3-.405 1.02.006 2.04.138 3 .405 2.28-1.552 3.285-1.23 3.285-1.23.645 1.653.24 2.873.12 3.176.765.84 1.23 1.91 1.23 3.22 0 4.61-2.805 5.625-5.475 5.92.42.36.81 1.096.81 2.22 0 1.606-.015 2.896-.015 3.286 0 .315.21.69.825.57C20.565 22.092 24 17.592 24 12.297c0-6.627-5.373-12-12-12"/></symbol>        
    <symbol id="stackoverflow" viewBox="0 0 24 24" stroke-width="1.5" fill="none" color="currentColor"><path d="M19 15v6H5v-6M16 17H8M15.913 14.663L8.087 13M16.713 12.38L9.463 9M18.173 10.642L12.044 5.5M20.034 8.804L15.109 2.5" stroke="currentColor" stroke-width="1.5" stroke-linecap="round" stroke-linejoin="round"></path></symbol>        
    <symbol id="dropbox" role="img" viewBox="0 0 24 24"><path d="M6 1.807L0 5.629l6 3.822 6.001-3.822L6 1.807zM18 1.807l-6 3.822 6 3.822 6-3.822-6-3.822zM0 13.274l6 3.822 6.001-3.822L6 9.452l-6 3.822zM18 9.452l-6 3.822 6 3.822 6-3.822-6-3.822zM6 18.371l6.001 3.822 6-3.822-6-3.822L6 18.371z"/></symbol>            
    <symbol id="repository" viewBox="0 0 24 24" stroke-width="1.5" fill="none" color="currentColor"><path d="M4 19V5a2 2 0 012-2h13.4a.6.6 0 01.6.6v13.114" stroke="currentColor" stroke-width="1.5" stroke-linecap="round"></path><path d="M15 17v5l2.5-1.6L20 22v-5" stroke="currentColor" stroke-width="1.5" stroke-linecap="round" stroke-linejoin="round"></path><path d="M6 17h14" stroke="currentColor" stroke-width="1.5" stroke-linecap="round"></path><path d="M6 17a2 2 0 100 4h5.5" stroke="currentColor" stroke-width="1.5" stroke-linecap="round" stroke-linejoin="round"></path></symbol>   
    <symbol id="cube" stroke-width="1.5" viewBox="0 0 24 24" fill="none" color="currentColor"><path d="M21 7.353v9.294a.6.6 0 01-.309.525l-8.4 4.666a.6.6 0 01-.582 0l-8.4-4.666A.6.6 0 013 16.647V7.353a.6.6 0 01.309-.524l8.4-4.667a.6.6 0 01.582 0l8.4 4.667a.6.6 0 01.309.524z" stroke="currentColor" stroke-width="1.5" stroke-linecap="round" stroke-linejoin="round"></path><path d="M3.528 7.294l8.18 4.544a.6.6 0 00.583 0l8.209-4.56M12 21v-9" stroke="currentColor" stroke-width="1.5" stroke-linecap="round" stroke-linejoin="round"></path></symbol>        
    <symbol id="palette" stroke-width="1.5" viewBox="0 0 24 24" fill="none" color="currentColor"><path d="M20.51 9.54a1.899 1.899 0 01-1 1.09A7 7 0 0015.37 17c.001.47.048.939.14 1.4a2.16 2.16 0 01-.31 1.65 1.79 1.79 0 01-1.21.8 9 9 0 01-10.62-9.13A9.05 9.05 0 0111.85 3h.51a9 9 0 018.06 5 2 2 0 01.09 1.52v.02z" stroke="currentColor" stroke-width="1.5"></path><path d="M8 16.01l.01-.011M6 12.01l.01-.011M8 8.01l.01-.011M12 6.01l.01-.011M16 8.01l.01-.011" stroke="currentColor" stroke-width="1.5" stroke-linecap="round" stroke-linejoin="round"></path></symbol>
    <symbol id="app-window" viewBox="0 0 24 24" stroke-width="1.5" fill="none" color="currentColor"><path d="M2 19V5a2 2 0 012-2h16a2 2 0 012 2v14a2 2 0 01-2 2H4a2 2 0 01-2-2z" stroke="currentColor" stroke-width="1.5"></path><path d="M2 7h20M5 5.01l.01-.011M8 5.01l.01-.011M11 5.01l.01-.011" stroke="currentColor" stroke-width="1.5" stroke-linecap="round" stroke-linejoin="round"></path></symbol>        
    <symbol id="apple-shortcuts" viewBox="0 0 24 24" stroke-width="1.5" fill="none" color="currentColor"><g clip-path="url(#apple-shortcuts_svg__clip0_3190_17433)" stroke="currentColor" stroke-width="1.5"><path d="M9.852 14.633l-6.2-3.946a2 2 0 010-3.374l6.2-3.946a4 4 0 014.296 0l6.2 3.946a2 2 0 010 3.374l-6.2 3.946a4 4 0 01-4.296 0z"></path><path d="M18.286 12l2.063 1.313a2 2 0 010 3.374l-6.201 3.946a4 4 0 01-4.296 0l-6.2-3.946a2 2 0 010-3.374L5.714 12"></path></g><defs><clipPath><path fill="#fff" d="M0 0h24v24H0z"></path></clipPath></defs></symbol>        
    <symbol id="arcade" viewBox="0 0 24 24" stroke-width="1.5" fill="none" color="currentColor"><path d="M11 8.5L9.8 9l-7.448 3.386a.6.6 0 00-.352.546v.136a.6.6 0 00.352.546l8.82 4.01a2 2 0 001.656 0l8.82-4.01a.6.6 0 00.352-.546v-.136a.6.6 0 00-.352-.546L14.2 9 13 8.5" stroke="currentColor" stroke-width="1.5"></path><path d="M22 13v4.112a.6.6 0 01-.354.547l-8.825 3.972a2 2 0 01-1.642 0l-8.825-3.972A.6.6 0 012 17.112V13" stroke="currentColor" stroke-width="1.5"></path><path d="M12 8a3 3 0 110-6 3 3 0 010 6z" stroke="currentColor" stroke-width="1.5" stroke-linecap="round" stroke-linejoin="round"></path><path d="M11 8v5a1 1 0 001 1v0a1 1 0 001-1V8" stroke="currentColor" stroke-width="1.5"></path><path d="M16 13h1" stroke="currentColor" stroke-width="1.5" stroke-linecap="round" stroke-linejoin="round"></path></symbol>        
    <symbol id="attachment" stroke-width="1.5" viewBox="0 0 24 24" fill="none" color="currentColor"><path d="M21.438 11.662l-9.19 9.19a6.003 6.003 0 11-8.49-8.49l9.19-9.19a4.002 4.002 0 015.66 5.66l-9.2 9.19a2.001 2.001 0 11-2.83-2.83l8.49-8.48" stroke="currentColor" stroke-width="1.5" stroke-linecap="round" stroke-linejoin="round"></path></symbol>        
    <symbol id="book-stack" stroke-width="1.5" viewBox="0 0 24 24" fill="none" color="currentColor"><path d="M5 19.5V5a2 2 0 012-2h11.4a.6.6 0 01.6.6V21M9 7h6M6.5 15H19M6.5 18H19M6.5 21H19" stroke="currentColor" stroke-width="1.5" stroke-linecap="round"></path><path d="M6.5 18c-1 0-1.5-.672-1.5-1.5S5.5 15 6.5 15M6.5 21c-1 0-1.5-.672-1.5-1.5S5.5 18 6.5 18" stroke="currentColor" stroke-width="1.5" stroke-linecap="round" stroke-linejoin="round"></path></symbol>        
    <symbol id="brain" viewBox="0 0 24 24" stroke-width="1.5" fill="none" color="currentColor"><path d="M7 14a3 3 0 101 5.83M4.264 15.605a4 4 0 01-.874-6.636M3.42 8.888A2.5 2.5 0 017 5.5M7.238 5.565A2.5 2.5 0 1112 4.5V20M8 20a2 2 0 104 0M12 7a3 3 0 003 3M17 14a3 3 0 11-1 5.83M19.736 15.605a4 4 0 00.874-6.636M20.58 8.888A2.5 2.5 0 0017 5.5M12 4.5a2.5 2.5 0 114.762 1.065M16 20a2 2 0 11-4 0" stroke="currentColor" stroke-width="1.5" stroke-linecap="round" stroke-linejoin="round"></path></symbol>        
    <symbol id="calculator" stroke-width="1.5" viewBox="0 0 24 24" fill="none" color="currentColor"><path d="M1 21V3a2 2 0 012-2h18a2 2 0 012 2v18a2 2 0 01-2 2H3a2 2 0 01-2-2z" stroke="currentColor" stroke-width="1.5"></path><path d="M15 7h4M15 15.5h4M15 18.5h4M5 7h2m2 0H7m0 0V5m0 2v2M5.586 18.414L7 17m1.415-1.414L7 17m0 0l-1.414-1.414M7 17l1.415 1.414" stroke="currentColor" stroke-width="1.5" stroke-linecap="round" stroke-linejoin="round"></path></symbol>        
    <symbol id="check-window" viewBox="0 0 24 24" stroke-width="1.5" fill="none" color="currentColor"><path d="M13 21H4a2 2 0 01-2-2V5a2 2 0 012-2h16a2 2 0 012 2v10" stroke="currentColor" stroke-width="1.5" stroke-linecap="round"></path><path d="M2 7h20M5 5.01l.01-.011M8 5.01l.01-.011M11 5.01l.01-.011M16 20l2 2 4-4" stroke="currentColor" stroke-width="1.5" stroke-linecap="round" stroke-linejoin="round"></path></symbol>        
    <symbol id="cloud-upload" stroke-width="1.5" viewBox="0 0 24 24" fill="none" color="currentColor"><path d="M12 22v-9m0 0l3.5 3.5M12 13l-3.5 3.5M20 17.607c1.494-.585 3-1.918 3-4.607 0-4-3.333-5-5-5 0-2 0-6-6-6S6 6 6 8c-1.667 0-5 1-5 5 0 2.689 1.506 4.022 3 4.607" stroke="currentColor" stroke-width="1.5" stroke-linecap="round" stroke-linejoin="round"></path></symbol>            
    <symbol id="community" viewBox="0 0 24 24" stroke-width="1.5" fill="none" color="currentColor"><path d="M7 18v-1a5 5 0 015-5v0a5 5 0 015 5v1M1 18v-1a3 3 0 013-3v0M23 18v-1a3 3 0 00-3-3v0M12 12a3 3 0 100-6 3 3 0 000 6zM4 14a2 2 0 100-4 2 2 0 000 4zM20 14a2 2 0 100-4 2 2 0 000 4z" stroke="currentColor" stroke-width="1.5" stroke-linecap="round" stroke-linejoin="round"></path></symbol>        
    <symbol id="compress" stroke-width="1.5" viewBox="0 0 24 24" fill="none" color="currentColor"><path d="M18 12H6M12 22v-6m0 0l3 3m-3-3l-3 3M12 2v6m0 0l3-3m-3 3L9 5" stroke="currentColor" stroke-width="1.5" stroke-linecap="round" stroke-linejoin="round"></path></symbol>        
    <symbol id="horizontal-merge" viewBox="0 0 24 24" stroke-width="1.5" fill="none" color="currentColor"><path d="M22 12h-8m0 0l3.5-3.5M14 12l3.5 3.5M2 12h8m0 0L6.5 8.5M10 12l-3.5 3.5M10 21V3M14 21V3" stroke="currentColor" stroke-width="1.5" stroke-linecap="round" stroke-linejoin="round"></path></symbol>        
    <symbol id="cpu" stroke-width="1.5" viewBox="0 0 24 24" fill="none" color="currentColor"><path d="M8 15.4V8.6a.6.6 0 01.6-.6h6.8a.6.6 0 01.6.6v6.8a.6.6 0 01-.6.6H8.6a.6.6 0 01-.6-.6z" stroke="currentColor" stroke-width="1.5" stroke-linecap="round" stroke-linejoin="round"></path><path d="M20 4.6v14.8a.6.6 0 01-.6.6H4.6a.6.6 0 01-.6-.6V4.6a.6.6 0 01.6-.6h14.8a.6.6 0 01.6.6zM17 4V2M12 4V2M7 4V2M7 20v2M12 20v2M17 20v2M20 17h2M20 12h2M20 7h2M4 17H2M4 12H2M4 7H2" stroke="currentColor" stroke-width="1.5" stroke-linecap="round" stroke-linejoin="round"></path></symbol>        
    <symbol id="cube-replace" viewBox="0 0 24 24" stroke-width="1.5" fill="none" color="currentColor"><g clip-path="url(#cube-replace-face_svg__clip0_3377_18972)" stroke="currentColor" stroke-width="1.5" stroke-linecap="round" stroke-linejoin="round"><path d="M19 13.5v5.152a.6.6 0 01-.302.52l-6.4 3.658a.6.6 0 01-.596 0l-6.4-3.657A.6.6 0 015 18.652V13M12 22.5V17M23 8L11 1M13 15L1 8M1 8c3-5 7-2 10-7M13 15c3-5 7-2 10-7"></path></g><defs><clipPath><path fill="#fff" d="M0 0h24v24H0z"></path></clipPath></defs></symbol>        
    <symbol id="dashboard-dots" stroke-width="1.5" viewBox="0 0 24 24" fill="none" color="currentColor"><path d="M12 7.01l.01-.011M16 9.01l.01-.011M8 9.01l.01-.011M18 13.01l.01-.011M6 13.01l.01-.011M17 17.01l.01-.011M7 17.01l.01-.011M12 17l1-6M8.5 20.001H4A9.956 9.956 0 012 14C2 8.477 6.477 4 12 4s10 4.477 10 10c0 2.252-.744 4.33-2 6.001L15.5 20" stroke="currentColor" stroke-width="1.5" stroke-linecap="round" stroke-linejoin="round"></path><path d="M12 23a3 3 0 100-6 3 3 0 000 6z" stroke="currentColor" stroke-width="1.5" stroke-linecap="round" stroke-linejoin="round"></path></symbol>        
    <symbol id="dashboard-speed" stroke-width="1.5" viewBox="0 0 24 24" fill="none" color="currentColor"><path d="M12 4v4M4 8l2.5 2.5M17.5 10.5L20 8M3 17h3M12 17l1-6M18 17h3M8.5 20.001H4A9.956 9.956 0 012 14C2 8.477 6.477 4 12 4s10 4.477 10 10c0 2.252-.744 4.33-2 6.001L15.5 20" stroke="currentColor" stroke-width="1.5" stroke-linecap="round" stroke-linejoin="round"></path><path d="M12 23a3 3 0 100-6 3 3 0 000 6z" stroke="currentColor" stroke-width="1.5" stroke-linecap="round" stroke-linejoin="round"></path></symbol>        
    <symbol id="database-settings" stroke-width="1.5" viewBox="0 0 24 24" fill="none" color="currentColor"><path d="M4 6v6s0 3 7 3 7-3 7-3V6" stroke="currentColor" stroke-width="1.5" stroke-linecap="round" stroke-linejoin="round"></path><path d="M11 3c7 0 7 3 7 3s0 3-7 3-7-3-7-3 0-3 7-3zM11 21c-7 0-7-3-7-3v-6M19 21a2 2 0 100-4 2 2 0 000 4z" stroke="currentColor" stroke-width="1.5" stroke-linecap="round" stroke-linejoin="round"></path><path d="M19 22a3 3 0 100-6 3 3 0 000 6z" stroke="currentColor" stroke-width="1.5" stroke-linecap="round" stroke-linejoin="round" stroke-dasharray="0.3 2"></path></symbol>        
    <symbol id="empty-page" viewBox="0 0 24 24" stroke-width="1.5" fill="none" color="currentColor"><path d="M4 21.4V2.6a.6.6 0 01.6-.6h11.652a.6.6 0 01.424.176l3.148 3.148A.6.6 0 0120 5.75V21.4a.6.6 0 01-.6.6H4.6a.6.6 0 01-.6-.6z" stroke="currentColor" stroke-width="1.5" stroke-linecap="round" stroke-linejoin="round"></path><path d="M16 2v3.4a.6.6 0 00.6.6H20" stroke="currentColor" stroke-width="1.5" stroke-linecap="round" stroke-linejoin="round"></path></symbol>        
    <symbol id="filter-alt" stroke-width="1.5" viewBox="0 0 24 24" fill="none" color="currentColor"><path d="M3 7V4a1 1 0 011-1h16a1 1 0 011 1v3M3 7l6.65 5.7a1 1 0 01.35.76v6.26a1 1 0 001.242.97l2-.5a1 1 0 00.758-.97v-5.76a1 1 0 01.35-.76L21 7M3 7h18" stroke="currentColor" stroke-width="1.5" stroke-linecap="round" stroke-linejoin="round"></path></symbol>        
    <symbol id="folder" stroke-width="1.5" viewBox="0 0 24 24" fill="none" color="currentColor"><path d="M2 11V4.6a.6.6 0 01.6-.6h6.178a.6.6 0 01.39.144l3.164 2.712a.6.6 0 00.39.144H21.4a.6.6 0 01.6.6V11M2 11v8.4a.6.6 0 00.6.6h18.8a.6.6 0 00.6-.6V11M2 11h20" stroke="currentColor" stroke-width="1.5" stroke-linecap="round" stroke-linejoin="round"></path></symbol>        
    <symbol id="fx-tag" stroke-width="1.5" viewBox="0 0 24 24" fill="none" color="currentColor"><path d="M2 15V9a6 6 0 016-6h8a6 6 0 016 6v6a6 6 0 01-6 6H8a6 6 0 01-6-6z" stroke="currentColor" stroke-width="1.5"></path><path d="M6 15V9h5M6 12h3.571M13 15l2.5-3m0 0L18 9m-2.5 3L13 9m2.5 3l2.5 3" stroke="currentColor" stroke-width="1.5" stroke-linecap="round" stroke-linejoin="round"></path></symbol>        
    <symbol id="fx" stroke-width="1.5" viewBox="0 0 24 24" fill="none" color="currentColor"><path d="M3 17V7h7M3 12h5M13 17l4-5m0 0l4-5m-4 5l-4-5m4 5l4 5" stroke="currentColor" stroke-width="1.5" stroke-linecap="round" stroke-linejoin="round"></path></symbol>        
    <symbol id="gamepad" viewBox="0 0 24 24" stroke-width="1.5" fill="none" color="currentColor"><path d="M17.5 17.5c2.5 3.5 6.449.915 5.5-2.5-1.425-5.129-2.2-7.984-2.603-9.492A2.032 2.032 0 0018.438 4H5.562c-.918 0-1.718.625-1.941 1.515C2.78 8.863 2.033 11.802 1.144 15c-.948 3.415 3 6 5.5 2.5M18 8.5l.011.01M16.49 7l.011.01M16.49 10l.011.01M15 8.5l.011.01M7 7v3M5.5 8.5h3" stroke="currentColor" stroke-width="1.5" stroke-linecap="round" stroke-linejoin="round"></path><path d="M8 16a2 2 0 100-4 2 2 0 000 4zM16 16a2 2 0 100-4 2 2 0 000 4z" stroke="currentColor" stroke-width="1.5" stroke-linecap="round" stroke-linejoin="round"></path></symbol>        
    <symbol id="git-fork" viewBox="0 0 24 24" stroke-width="1.5" fill="none" color="currentColor"><path d="M17 7a2 2 0 100-4 2 2 0 000 4zM7 7a2 2 0 100-4 2 2 0 000 4zM7 21a2 2 0 100-4 2 2 0 000 4zM7 7v10M17 7v1c0 2.5-2 3-2 3l-6 2s-2 .5-2 3v1" stroke="currentColor" stroke-width="1.5" stroke-linecap="round" stroke-linejoin="round"></path></symbol>        
    <symbol id="graduation-cap" viewBox="0 0 24 24" stroke-width="1.5" fill="none" color="currentColor"><path d="M2.573 8.463l8.659-4.329a.6.6 0 01.536 0l8.659 4.33a.6.6 0 010 1.073l-8.659 4.329a.6.6 0 01-.536 0l-8.659-4.33a.6.6 0 010-1.073z" stroke="currentColor" stroke-width="1.5" stroke-linecap="round" stroke-linejoin="round"></path><path d="M22.5 13V9.5l-2-1M4.5 10.5v5.412a2 2 0 001.142 1.807l5 2.374a2 2 0 001.716 0l5-2.374a2 2 0 001.142-1.807V10.5" stroke="currentColor" stroke-width="1.5" stroke-linecap="round" stroke-linejoin="round"></path></symbol>        
    <symbol id="historic-shield" stroke-width="1.5" viewBox="0 0 24 24" fill="none" color="currentColor"><path d="M4 15.528V2.6a.6.6 0 01.6-.6h14.8a.6.6 0 01.6.6v12.928a4 4 0 01-2.211 3.578l-5.52 2.76a.6.6 0 01-.537 0l-5.52-2.76A4 4 0 014 15.528z" stroke="currentColor" stroke-width="1.5" stroke-linecap="round" stroke-linejoin="round"></path></symbol>        
    <symbol id="internet" stroke-width="1.5" viewBox="0 0 24 24" fill="none" color="currentColor"><path d="M22 12c0-5.523-4.477-10-10-10S2 6.477 2 12s4.477 10 10 10M13 2.05S16 6 16 12" stroke="currentColor" stroke-width="1.5" stroke-linecap="round" stroke-linejoin="round"></path><path d="M11 21.95S8 18 8 12c0-6 3-9.95 3-9.95M2.63 15.5H12M2.63 8.5h18.74" stroke="currentColor" stroke-width="1.5" stroke-linecap="round" stroke-linejoin="round"></path><path clip-rule="evenodd" d="M21.879 17.917c.494.304.463 1.043-.045 1.101l-2.567.291-1.151 2.312c-.228.459-.933.234-1.05-.334l-1.255-6.116c-.099-.48.333-.782.75-.525l5.318 3.271z" stroke="currentColor" stroke-width="1.5"></path></symbol>        
    <symbol id="keyframes" stroke-width="1.5" viewBox="0 0 24 24" fill="none" color="currentColor"><path d="M13.848 13.317L9.505 18.28a2 2 0 01-3.01 0l-4.343-4.963a2 2 0 010-2.634L6.495 5.72a2 2 0 013.01 0l4.343 4.963a2 2 0 010 2.634z" stroke="currentColor" stroke-width="1.5" stroke-linecap="round" stroke-linejoin="round"></path><path d="M13 19l4.884-5.698a2 2 0 000-2.604L13 5" stroke="currentColor" stroke-width="1.5" stroke-linecap="round" stroke-linejoin="round"></path><path d="M17 19l4.884-5.698a2 2 0 000-2.604L17 5" stroke="currentColor" stroke-width="1.5" stroke-linecap="round" stroke-linejoin="round"></path></symbol>        
    <symbol id="language" stroke-width="1.5" viewBox="0 0 24 24" fill="none" color="currentColor"><path d="M2 12c0 5.523 4.477 10 10 10s10-4.477 10-10S17.523 2 12 2 2 6.477 2 12z" stroke="currentColor" stroke-width="1.5" stroke-linecap="round" stroke-linejoin="round"></path><path d="M13 2.05S16 6 16 12c0 6-3 9.95-3 9.95M11 21.95S8 18 8 12c0-6 3-9.95 3-9.95M2.63 15.5h18.74M2.63 8.5h18.74" stroke="currentColor" stroke-width="1.5" stroke-linecap="round" stroke-linejoin="round"></path></symbol>        
    <symbol id="layout-right" stroke-width="1.5" viewBox="0 0 24 24" fill="none" color="currentColor"><path d="M20.4 3H3.6a.6.6 0 00-.6.6v16.8a.6.6 0 00.6.6h16.8a.6.6 0 00.6-.6V3.6a.6.6 0 00-.6-.6zM14.25 9.75V21M21 9.75H3" stroke="currentColor" stroke-width="1.5"></path></symbol>        
    <symbol id="light-bulb-on" stroke-width="1.5" viewBox="0 0 24 24" fill="none" color="currentColor"><path d="M21 2l-1 1M3 2l1 1M21 16l-1-1M3 16l1-1M9 18h6M10 21h4M12 3C8 3 5.952 4.95 6 8c.023 1.487.5 2.5 1.5 3.5S9 13 9 15h6c0-2 .5-2.5 1.5-3.5h0c1-1 1.477-2.013 1.5-3.5.048-3.05-2-5-6-5z" stroke="currentColor" stroke-width="1.5" stroke-linecap="round" stroke-linejoin="round"></path></symbol>        
    <symbol id="media-image-folder" stroke-width="1.5" viewBox="0 0 24 24" fill="none" color="currentColor"><path d="M22 12.6v7.8a.6.6 0 01-.6.6h-7.8a.6.6 0 01-.6-.6v-7.8a.6.6 0 01.6-.6h7.8a.6.6 0 01.6.6zM19.5 14.51l.01-.011" stroke="currentColor" stroke-width="1.5" stroke-linecap="round" stroke-linejoin="round"></path><path d="M13 18.2l3.5-1.2 5.5 2M2 10V3.6a.6.6 0 01.6-.6h6.178a.6.6 0 01.39.144l3.164 2.712a.6.6 0 00.39.144H21.4a.6.6 0 01.6.6V9M2 10v8.4a.6.6 0 00.6.6H10m-8-9h8" stroke="currentColor" stroke-width="1.5" stroke-linecap="round" stroke-linejoin="round"></path></symbol>        
    <symbol id="media-image" stroke-width="1.5" viewBox="0 0 24 24" fill="none" color="currentColor"><path d="M21 3.6v16.8a.6.6 0 01-.6.6H3.6a.6.6 0 01-.6-.6V3.6a.6.6 0 01.6-.6h16.8a.6.6 0 01.6.6z" stroke="currentColor" stroke-width="1.5" stroke-linecap="round" stroke-linejoin="round"></path><path d="M3 16l7-3 11 5M16 10a2 2 0 110-4 2 2 0 010 4z" stroke="currentColor" stroke-width="1.5" stroke-linecap="round" stroke-linejoin="round"></path></symbol>        
    <symbol id="modern-tv" stroke-width="1.5" viewBox="0 0 24 24" fill="none" color="currentColor"><path d="M7 21h10" stroke="currentColor" stroke-width="1.5" stroke-linecap="round" stroke-linejoin="round"></path><path d="M2 16.4V3.6a.6.6 0 01.6-.6h18.8a.6.6 0 01.6.6v12.8a.6.6 0 01-.6.6H2.6a.6.6 0 01-.6-.6z" stroke="currentColor" stroke-width="1.5"></path></symbol>        
    <symbol id="multiple-pages" viewBox="0 0 24 24" stroke-width="1.5" fill="none" color="currentColor"><path d="M7 2h9.5L21 6.5V19" stroke="currentColor" stroke-width="1.5" stroke-linecap="round" stroke-linejoin="round"></path><path d="M3 20.5v-14A1.5 1.5 0 014.5 5h9.752a.6.6 0 01.424.176l3.148 3.148A.6.6 0 0118 8.75V20.5a1.5 1.5 0 01-1.5 1.5h-12A1.5 1.5 0 013 20.5z" stroke="currentColor" stroke-width="1.5" stroke-linecap="round" stroke-linejoin="round"></path><path d="M14 5v3.4a.6.6 0 00.6.6H18" stroke="currentColor" stroke-width="1.5" stroke-linecap="round" stroke-linejoin="round"></path></symbol>        
    <symbol id="network-alt" stroke-width="1.5" viewBox="0 0 24 24" fill="none" color="currentColor"><rect width="7" height="5" rx="0.6" transform="matrix(1 0 0 -1 3 22)" stroke="currentColor" stroke-width="1.5"></rect><rect width="7" height="5" rx="0.6" transform="matrix(1 0 0 -1 8.5 7)" stroke="currentColor" stroke-width="1.5"></rect><rect width="7" height="5" rx="0.6" transform="matrix(1 0 0 -1 14 22)" stroke="currentColor" stroke-width="1.5"></rect><path d="M6.5 17v-3.5a2 2 0 012-2h7a2 2 0 012 2V17M12 11.5V7" stroke="currentColor" stroke-width="1.5"></path></symbol>        
    <symbol id="okrs" viewBox="0 0 24 24" stroke-width="1.5" fill="none" color="currentColor"><path d="M18 14a2 2 0 100-4 2 2 0 000 4zM18 7a2 2 0 100-4 2 2 0 000 4zM3 5h10M3 12h10M3 19h10M16 21.243l2.121-2.122m0 0L20.243 17m-2.122 2.121L16 17m2.121 2.121l2.122 2.122" stroke="currentColor" stroke-width="1.5" stroke-linecap="round" stroke-linejoin="round"></path></symbol>        
    <symbol id="pc-check" stroke-width="1.5" viewBox="0 0 24 24" fill="none" color="currentColor"><path d="M7 22h10" stroke="currentColor" stroke-width="1.5" stroke-linecap="round" stroke-linejoin="round"></path><path d="M2 17V4a2 2 0 012-2h16a2 2 0 012 2v13a2 2 0 01-2 2H4a2 2 0 01-2-2z" stroke="currentColor" stroke-width="1.5"></path><path d="M9 10.5l2 2 4-4" stroke="currentColor" stroke-width="1.5" stroke-linecap="round" stroke-linejoin="round"></path></symbol>        
    <symbol id="pc-firewall" stroke-width="1.5" viewBox="0 0 24 24" fill="none" color="currentColor"><path d="M7 22h10" stroke="currentColor" stroke-width="1.5" stroke-linecap="round" stroke-linejoin="round"></path><path d="M2 17V4a2 2 0 012-2h16a2 2 0 012 2v13a2 2 0 01-2 2H4a2 2 0 01-2-2z" stroke="currentColor" stroke-width="1.5"></path><path d="M12.485 6.121l3.06.765a.59.59 0 01.449.586C15.818 14 12 15 12 15s-3.818-1-3.994-7.528a.59.59 0 01.448-.586l3.06-.765a2 2 0 01.971 0z" stroke="currentColor" stroke-width="1.5" stroke-linecap="round" stroke-linejoin="round"></path></symbol>        
    <symbol id="pin" viewBox="0 0 24 24" stroke-width="1.5" fill="none" color="currentColor"><path d="M9.5 14.5L3 21M5 9.485l9.193 9.193 1.697-1.697-.393-3.787 5.51-4.673-5.85-5.85-4.674 5.51-3.786-.393L5 9.485z" stroke="currentColor" stroke-width="1.5" stroke-linecap="round" stroke-linejoin="round"></path></symbol>        
    <symbol id="puzzle" stroke-width="1.5" viewBox="0 0 24 24" fill="none" color="currentColor"><path d="M4 14v4.4a.6.6 0 00.6.6H10M19 14v4.4a.6.6 0 01-.6.6H14M14 5h4.4a.6.6 0 01.6.6V10M4 10V5.6a.6.6 0 01.6-.6H10M14 19v1a2 2 0 11-4 0v-1M4 10h1a2 2 0 110 4H4M19 10h1a2 2 0 110 4h-1M14 5V4a2 2 0 10-4 0v1" stroke="currentColor" stroke-width="1.5" stroke-linecap="round" stroke-linejoin="round"></path></symbol>        
    <symbol id="report-columns" stroke-width="1.5" viewBox="0 0 24 24" fill="none" color="currentColor"><path d="M3 7.4V3.6a.6.6 0 01.6-.6h5.8a.6.6 0 01.6.6v3.8a.6.6 0 01-.6.6H3.6a.6.6 0 01-.6-.6zM14 20.4v-3.8a.6.6 0 01.6-.6h5.8a.6.6 0 01.6.6v3.8a.6.6 0 01-.6.6h-5.8a.6.6 0 01-.6-.6zM14 12.4V3.6a.6.6 0 01.6-.6h5.8a.6.6 0 01.6.6v8.8a.6.6 0 01-.6.6h-5.8a.6.6 0 01-.6-.6zM3 20.4v-8.8a.6.6 0 01.6-.6h5.8a.6.6 0 01.6.6v8.8a.6.6 0 01-.6.6H3.6a.6.6 0 01-.6-.6z" stroke="currentColor" stroke-width="1.5"></path></symbol>        
    <symbol id="rocket" viewBox="0 0 24 24" stroke-width="1.5" fill="none" color="currentColor"><path d="M16.061 10.404L14 17h-4l-2.061-6.596a6 6 0 01.998-5.484l2.59-3.315a.6.6 0 01.946 0l2.59 3.315a6 6 0 01.998 5.484zM10 20c0 2 2 3 2 3s2-1 2-3M8.5 12.5C5 15 7 19 7 19l3-2M15.931 12.5c3.5 2.5 1.5 6.5 1.5 6.5l-3-2" stroke="currentColor" stroke-width="1.5" stroke-linecap="round" stroke-linejoin="round"></path><path d="M12 11a2 2 0 110-4 2 2 0 010 4z" stroke="currentColor" stroke-width="1.5" stroke-linecap="round" stroke-linejoin="round"></path></symbol>        
    <symbol id="screenshot" viewBox="0 0 24 24" stroke-width="1.5" fill="none" color="currentColor"><path d="M10 21.4v-7.006a.6.6 0 01.6-.6h1.173a.6.6 0 00.504-.275l1.446-2.244a.6.6 0 01.504-.275h3.546a.6.6 0 01.504.275l1.446 2.244a.6.6 0 00.504.275H21.4a.6.6 0 01.6.6V21.4a.6.6 0 01-.6.6H10.6a.6.6 0 01-.6-.6z" stroke="currentColor" stroke-width="1.5" stroke-linecap="round" stroke-linejoin="round"></path><path d="M16 19a2 2 0 100-4 2 2 0 000 4zM3 18v3h2.5M3 9.5v5M3 6V3h3M9.5 3h5M18 3h3v2.5M21 10V8.5" stroke="currentColor" stroke-width="1.5" stroke-linecap="round" stroke-linejoin="round"></path></symbol>        
    <symbol id="settings" stroke-width="1.5" viewBox="0 0 24 24" fill="none" color="currentColor"><path d="M12 15a3 3 0 100-6 3 3 0 000 6z" stroke="currentColor" stroke-width="1.5" stroke-linecap="round" stroke-linejoin="round"></path><path d="M19.622 10.395l-1.097-2.65L20 6l-2-2-1.735 1.483-2.707-1.113L12.935 2h-1.954l-.632 2.401-2.645 1.115L6 4 4 6l1.453 1.789-1.08 2.657L2 11v2l2.401.655L5.516 16.3 4 18l2 2 1.791-1.46 2.606 1.072L11 22h2l.604-2.387 2.651-1.098C16.697 18.831 18 20 18 20l2-2-1.484-1.75 1.098-2.652 2.386-.62V11l-2.378-.605z" stroke="currentColor" stroke-width="1.5" stroke-linecap="round" stroke-linejoin="round"></path></symbol>        
    <symbol id="spades" viewBox="0 0 24 24" stroke-width="1.5" fill="none" color="currentColor"><path d="M12 14.5c3 4.5 9 4.47 9-.5 0-4-4-7-9-12-5 5-9 8-9 12 0 4.97 6 5 9 .5z" stroke="currentColor" stroke-width="1.5" stroke-linecap="round" stroke-linejoin="round"></path><path d="M11.47 15.493l-3 5.625A.6.6 0 009 22h6a.6.6 0 00.53-.882l-3-5.625a.6.6 0 00-1.06 0z" stroke="currentColor" stroke-width="1.5" stroke-linecap="round"></path></symbol>        
    <symbol id="star" stroke-width="1.5" viewBox="0 0 24 24" fill="none" color="currentColor"><path d="M8.587 8.236l2.598-5.232a.911.911 0 011.63 0l2.598 5.232 5.808.844a.902.902 0 01.503 1.542l-4.202 4.07.992 5.75c.127.738-.653 1.3-1.32.952L12 18.678l-5.195 2.716c-.666.349-1.446-.214-1.319-.953l.992-5.75-4.202-4.07a.902.902 0 01.503-1.54l5.808-.845z" stroke="currentColor" stroke-width="1.5" stroke-linecap="round" stroke-linejoin="round"></path></symbol>        
    <symbol id="task-list" stroke-width="1.5" viewBox="0 0 24 24" fill="none" color="currentColor"><path d="M9 6h11M3.8 5.8l.8.8 2-2M3.8 11.8l.8.8 2-2M3.8 17.8l.8.8 2-2M9 12h11M9 18h11" stroke="currentColor" stroke-width="1.5" stroke-linecap="round" stroke-linejoin="round"></path></symbol>        
    <symbol id="video-camera" stroke-width="1.5" viewBox="0 0 24 24" fill="none" color="currentColor"><path d="M15 12v4.4a.6.6 0 01-.6.6H3.6a.6.6 0 01-.6-.6V7.6a.6.6 0 01.6-.6h10.8a.6.6 0 01.6.6V12zm0 0l5.016-4.18a.6.6 0 01.984.461v7.438a.6.6 0 01-.984.46L15 12z" stroke="currentColor" stroke-width="1.5" stroke-linecap="round" stroke-linejoin="round"></path></symbol>        
    <symbol id="view-grid" stroke-width="1.5" viewBox="0 0 24 24" fill="none" color="currentColor"><path d="M14 20.4v-5.8a.6.6 0 01.6-.6h5.8a.6.6 0 01.6.6v5.8a.6.6 0 01-.6.6h-5.8a.6.6 0 01-.6-.6zM3 20.4v-5.8a.6.6 0 01.6-.6h5.8a.6.6 0 01.6.6v5.8a.6.6 0 01-.6.6H3.6a.6.6 0 01-.6-.6zM14 9.4V3.6a.6.6 0 01.6-.6h5.8a.6.6 0 01.6.6v5.8a.6.6 0 01-.6.6h-5.8a.6.6 0 01-.6-.6zM3 9.4V3.6a.6.6 0 01.6-.6h5.8a.6.6 0 01.6.6v5.8a.6.6 0 01-.6.6H3.6a.6.6 0 01-.6-.6z" stroke="currentColor" stroke-width="1.5"></path></symbol>            
</svg>