<svg xmlns="http://www.w3.org/2000/svg" viewBox="0 0 172 172"><defs><style>.cls-1{fill:#fff;stroke:#fff;stroke-miterlimit:10;stroke-width:0.5px;}</style></defs><g id="Layer_2" data-name="Layer 2"><g id="Layer_1-2" data-name="Layer 1"><rect width="172" height="172" rx="32.97"/><path class="cls-1" d="M8.17,123.29a99.67,99.67,0,0,1,3.11-9.9q2-5.44,4.6-11.36t5.74-12q3.14-6.09,6.5-11.86T35,67.25a111.61,111.61,0,0,1,7-9.17c.66-.74,1.49-1.66,2.49-2.75s2.11-2.23,3.34-3.4,2.52-2.34,3.87-3.49a41.75,41.75,0,0,1,4.07-3.1,26.07,26.07,0,0,1,4-2.23,8.9,8.9,0,0,1,3.58-.85,10.54,10.54,0,0,1,4.07.76,9,9,0,0,1,3.16,2.17,9.81,9.81,0,0,1,2.05,3.37,12.19,12.19,0,0,1,.74,4.31,13.43,13.43,0,0,1-.15,2c-.1.66-.22,1.35-.38,2L66.36,89.6c.58-.89,1.4-2.12,2.46-3.66s2.24-3.26,3.57-5.15,2.71-3.87,4.16-5.92,2.86-4,4.25-6,2.66-3.66,3.84-5.24,2.13-2.87,2.87-3.84l1-1.35c.71-.9,1.56-2,2.58-3.16s2.14-2.48,3.37-3.81,2.53-2.64,3.9-3.93a40.77,40.77,0,0,1,4.16-3.46,26.72,26.72,0,0,1,4.16-2.49,9.21,9.21,0,0,1,3.92-1,4.06,4.06,0,0,1,2.35.64,4.92,4.92,0,0,1,1.52,1.73,8,8,0,0,1,.82,2.55,18.86,18.86,0,0,1,.23,3,30.23,30.23,0,0,1-.41,5c-.27,1.68-.58,3.2-.93,4.57-.2,1.09-.46,2.65-.79,4.68s-.73,4.37-1.18,7-.92,5.49-1.43,8.55,2.92-1.26,2.67-.32a18.61,18.61,0,0,1-3,5c-.72.72-1.21,1.44-2,2.11a4.5,4.5,0,0,1-3,1,3,3,0,0,1-1.79-.61,6.79,6.79,0,0,1-1.52-1.55,8.3,8.3,0,0,1-1.06-2c0-.08,0-.15-.07-.22A5.37,5.37,0,0,1,101,79l4-16.83c.12-.54.21-1,.29-1.46a6.73,6.73,0,0,0,.12-1.23,4.38,4.38,0,0,0-.15-1.18l-.26-1c-.12-.35-.23-.67-.35-.94a52.88,52.88,0,0,0-5.66,5.07q-3,3.08-6.09,6.85c-2.94,3.61-4.65,6-6.15,8q-3.07,4.24-5.83,8.53c-1.45,2.22-3,4.57-4.66,7l-5,7.41q-2.52,3.72-4.89,7.44c-1.58,2.48-3,4.86-4.31,7.12A32.16,32.16,0,0,0,60,118.08q-1,2.58-2.2,5a23.47,23.47,0,0,1-2.58,4.22,4,4,0,0,1-3.13,1.76,5.57,5.57,0,0,1-2.26-.41,3.81,3.81,0,0,1-1.43-1.09,4.17,4.17,0,0,1-.77-1.58,8.16,8.16,0,0,1-.23-2,14.52,14.52,0,0,1,.26-2.7c.18-.9.36-1.76.56-2.58q1.23-5.15,2.58-10.25T53.61,98.1q1.44-5.32,3-11c1-3.8,2-7.86,3.11-12.15q.41-1.82.93-4.08c.35-1.5.69-3,1-4.57s.57-3,.76-4.48a28.29,28.29,0,0,0,.29-3.87,10,10,0,0,0-.23-2.43c-.16-.6-.45-.91-.88-.91A8.23,8.23,0,0,0,57,56.18a28.53,28.53,0,0,0-4.86,4.24,57.12,57.12,0,0,0-4.87,6q-2.4,3.41-4.57,7c-1.44,2.4-2.79,4.78-4,7.12S36.32,85,35.42,86.91c-.2.39-.48.93-.85,1.61s-.86,1.64-1.47,2.87-1.34,2.8-2.22,4.72-1.92,4.33-3.11,7.26-2.57,6.43-4.13,10.49-3.32,8.83-5.27,14.3a4.62,4.62,0,0,1-1.85,2.28,4.83,4.83,0,0,1-2.72.88,5.69,5.69,0,0,1-4.49-1.64,5.94,5.94,0,0,1-1.43-4A11.06,11.06,0,0,1,8.17,123.29Z"/><path class="cls-1" d="M144.66,87.15a17.43,17.43,0,0,1,8,6.74,16.82,16.82,0,0,1,3.08,9.32,24.51,24.51,0,0,1-9.52,20q-9.53,7.71-24.7,7.71A42,42,0,0,1,99.69,125c-6.67-3.94-18-13.08-18-17.42a6.05,6.05,0,0,1,1.58-4.1A4.76,4.76,0,0,1,87,101.66c2.62,0,4.33.8,5.16,2.4,4.41,7.86,19.69,16.78,29.85,16.78q10.67,0,16.49-4.77a14.92,14.92,0,0,0,5.83-12A9.6,9.6,0,0,0,142,97.58a11.72,11.72,0,0,0-5.54-3.69q-3.22-1-11.83-1A4.61,4.61,0,0,1,121,91.34a5.25,5.25,0,0,1-1.38-3.6,4.44,4.44,0,0,1,1.73-3.4,6.94,6.94,0,0,1,4.77-1.53c1.56,0,3,0,4.46.12l4.16.35q.93,0,6.12-2.14a20.52,20.52,0,0,0,8.11-5.62,12.11,12.11,0,0,0,2.93-8.06,10.8,10.8,0,0,0-4.54-8.82q-4.55-3.54-12-3.54c-8.59,0-9.4,3.48-11.32,3.48a5.24,5.24,0,0,1-3.69-1.34,4.65,4.65,0,0,1-1.46-3.58c0-3.47,9.85-8.64,17.82-8.64q11.37,0,19,6.15t7.65,15.3a18.24,18.24,0,0,1-4.86,12.45Q153.56,84.39,144.66,87.15Z"/></g></g></svg>